<?xml version="1.0" encoding="UTF-8" standalone="no" ?>
<!DOCTYPE svg PUBLIC "-//W3C//DTD SVG 1.1//EN" "http://www.w3.org/Graphics/SVG/1.1/DTD/svg11.dtd">
<svg xmlns="http://www.w3.org/2000/svg" xmlns:xlink="http://www.w3.org/1999/xlink" version="1.1" width="1080" height="1080" viewBox="0 0 1080 1080" xml:space="preserve">
<desc>Created with Fabric.js 5.2.4</desc>
<defs>
</defs>
<rect x="0" y="0" width="100%" height="100%" fill="transparent"></rect>
<g transform="matrix(1 0 0 1 540 540)" id="b32991a9-a643-4094-8646-87b011367f94"  >
<rect style="stroke: none; stroke-width: 1; stroke-dasharray: none; stroke-linecap: butt; stroke-dashoffset: 0; stroke-linejoin: miter; stroke-miterlimit: 4; fill: rgb(255,255,255); fill-rule: nonzero; opacity: 1; visibility: hidden;" vector-effect="non-scaling-stroke"  x="-540" y="-540" rx="0" ry="0" width="1080" height="1080" />
</g>
<g transform="matrix(1 0 0 1 540 540)" id="9a04b244-f6d1-4642-815f-4e4ed289990c"  >
</g>
<g transform="matrix(9.39 0 0 9.39 540 540)" id="cd9dc4ae-386e-47cf-9f8e-ece15d1ad68b"  >
<circle style="stroke: rgb(0,0,0); stroke-width: 0; stroke-dasharray: none; stroke-linecap: butt; stroke-dashoffset: 0; stroke-linejoin: miter; stroke-miterlimit: 4; fill: rgb(0,0,0); fill-rule: nonzero; opacity: 1;" vector-effect="non-scaling-stroke"  cx="0" cy="0" r="35" />
</g>
<g transform="matrix(0.66 0 0 0.66 540 540)"  >
<g style="" vector-effect="non-scaling-stroke"   >
		<g transform="matrix(1.56 0 0 1.56 -290.07 -13.69)"  >
<path style="stroke: none; stroke-width: 1; stroke-dasharray: none; stroke-linecap: butt; stroke-dashoffset: 0; stroke-linejoin: miter; stroke-miterlimit: 4; fill: rgb(255,255,255); fill-rule: nonzero; opacity: 1;" vector-effect="non-scaling-stroke"  transform=" translate(-70.36, -63.3)" d="M 66.6783973 46.5413294 C 67.8291061 44.8451711 69.0888057 44.6294864 70.1107072 44.6294864 C 71.1326087 44.6294864 72.8350272 44.8451711 73.9861863 46.5413294 C 83.0567441 59.0000603 98.0290194 83.8184395 109.073572 102.125744 C 116.275973 114.064741 121.807933 123.234382 122.942878 124.401304 C 127.203428 128.782104 133.046597 126.05193 136.441976 121.082939 C 139.784661 116.190963 140.712434 112.755951 140.712434 109.091247 C 140.712434 106.595268 92.2849333 16.5289974 87.4078196 9.03209576 C 82.7176116 1.82134459 81.1899387 0 73.16245 0 L 67.1553447 0 C 59.1517259 0 57.9951622 1.82134459 53.3045039 9.03209576 C 48.4278405 16.5289974 0 106.595268 0 109.091247 C 0 112.755951 0.927977482 116.190963 4.27073475 121.082939 C 7.66608684 126.05193 13.5092105 128.782104 17.7696253 124.401304 C 18.9047061 123.234382 24.4366655 114.064741 31.6391568 102.125744 C 42.6835292 83.8184395 57.6078395 59.0000603 66.6783973 46.5413294 Z" stroke-linecap="round" />
</g>
		<g transform="matrix(1.56 0 0 1.56 136.23 6.22)"  >
<path style="stroke: none; stroke-width: 1; stroke-dasharray: none; stroke-linecap: butt; stroke-dashoffset: 0; stroke-linejoin: miter; stroke-miterlimit: 4; fill: rgb(255,255,255); fill-rule: nonzero; opacity: 1;" vector-effect="non-scaling-stroke"  transform=" translate(-343.19, -76.04)" d="M 387.841898 39.3946846 C 407.787668 39.3946846 423.649434 57.4016785 423.649434 79.673636 C 423.649434 101.945594 407.787668 120.110579 387.841898 120.110579 C 377.1626 120.110579 368.838765 115.687894 363.499115 107.632032 L 363.499115 107.632032 L 363.499115 144.120084 L 341.355065 144.120084 L 341.355065 40.9742858 L 363.499115 40.9742858 L 363.499115 51.8733221 C 368.838765 43.8175048 377.1626 39.3946846 387.841898 39.3946846 Z M 471.952632 39.3946846 C 494.565974 39.3946846 512 56.769802 512 79.8317177 C 512 102.893183 494.565974 120.110579 471.952632 120.110579 C 449.179406 120.110579 431.903462 102.893183 431.903462 79.8317177 C 431.903462 56.769802 449.179406 39.3946846 471.952632 39.3946846 Z M 241.752323 7.96128353 L 241.752323 30.3911426 L 197.620952 30.3911426 L 197.620952 50.2938561 L 236.883767 50.2938561 L 236.883767 72.7234449 L 197.620952 72.7234449 L 197.620952 96.1010737 L 241.752323 96.1010737 L 241.752323 118.531113 L 174.377535 118.531113 L 174.377535 7.96128353 L 241.752323 7.96128353 Z M 277.784596 40.9742858 L 290.505896 59.2973079 L 303.383926 40.9742858 L 329.768711 40.9742858 L 303.698288 78.409883 L 331.653081 118.531113 L 304.954385 118.531113 L 290.348715 97.5229084 L 275.743045 118.531113 L 249.358711 118.531113 L 277.156323 78.5679647 L 251.0859 40.9742858 L 277.784596 40.9742858 Z M 382.816611 60.5610609 C 371.979682 60.5610609 363.499115 68.9326363 363.499115 79.673636 C 363.499115 90.5727174 371.979682 98.7866614 382.816611 98.7866614 C 393.49591 98.7866614 402.133657 90.4146357 402.133657 79.673636 C 402.133657 69.0907181 393.49591 60.5610609 382.816611 60.5610609 Z M 471.952632 60.7186923 C 461.427362 60.7186923 453.577321 68.7745546 453.577321 79.8317177 C 453.577321 90.5727174 461.427362 98.7866614 471.952632 98.7866614 C 482.315766 98.7866614 490.327942 90.5727174 490.327942 79.8317177 C 490.327942 68.7745546 482.315766 60.7186923 471.952632 60.7186923 Z" stroke-linecap="round" />
</g>
</g>
</g>
</svg>